# xmcd
#
# Track frame offsets:
# 150
# 14130
# 28571
# 42893
# 56251
# 67499
# 80344
# 93804
# 105483
# 119234
# 131840
# 143148
# 155714
# 168548
# 181816
# 194663
# 206062
# 217472
# 230764
# 244320
# 255641
# 266991
# 278958
#
# Disc length: 3869 seconds
#
#
# Revision: 0
# Processed by: cddbd v1.5.2PL0 Copyright (c) Steve Scherf et al.
# Submitted via: FreeRIP 2.944 
#
DISCID=740f1b17
DTITLE=Various Artist - Rare West Coast Jump 'n' Jive 1945-1954
DYEAR=1900
DGENRE=Jump Blues
TTITLE0=The Honeydripper: Part 1
TTITLE1=The Honeydripper: Part 2
TTITLE2=I Got A Right To Cry
TTITLE3=Tany
TTITLE4=Blow Mr. Jackson
TTITLE5=Milton's Boogie
TTITLE6=R.M. Blues
TTITLE7=Rainy Day Confession Blues: Part 1
TTITLE8=Rainy Day Confession Blues: Part 2
TTITLE9=It Never Should Have Been This Way
TTITLE10=Red Light
TTITLE11=Hurricane Boogie
TTITLE12=Eight O'Clock Stomp
TTITLE13=Old Crow Boogie
TTITLE14=Harlem Blues
TTITLE15=Shuffle Boogie
TTITLE16=Hot Chocolate Boogie
TTITLE17=Hey, Little Girl
TTITLE18=Richard's Bounce
TTITLE19=Call Me, Call Me, Call Me
TTITLE20=Hey, Little Boy
TTITLE21=Still Drifting
TTITLE22=Sweet Dreams
EXTD=
EXTT0=
EXTT1=
EXTT2=
EXTT3=
EXTT4=
EXTT5=
EXTT6=
EXTT7=
EXTT8=
EXTT9=
EXTT10=
EXTT11=
EXTT12=
EXTT13=
EXTT14=
EXTT15=
EXTT16=
EXTT17=
EXTT18=
EXTT19=
EXTT20=
EXTT21=
EXTT22=
PLAYORDER=
